<svg width="1440" height="629" viewBox="0 0 1440 629" fill="none" xmlns="http://www.w3.org/2000/svg">
<g clip-path="url(#clip0_496_357)">
<g opacity="0.6" filter="url(#filter0_f_496_357)">
<path d="M900.215 506.791C937.722 418.772 785.616 269.647 560.476 173.709C335.336 77.7718 122.419 71.3526 84.9123 159.371C47.4054 247.39 199.512 396.516 424.651 492.454C649.791 588.391 862.708 594.81 900.215 506.791Z" stroke="#FE9111" stroke-miterlimit="10"/>
<path d="M855.229 571.742C1091.1 506.506 1263.18 384.434 1239.57 299.086C1215.97 213.738 1005.62 197.435 769.748 262.671C533.875 327.907 361.798 449.979 385.402 535.327C409.007 620.675 619.356 636.979 855.229 571.742Z" stroke="#0058A9" stroke-width="2" stroke-miterlimit="10"/>
<path d="M320.183 577.671C563.982 598.978 768.372 538.983 776.702 443.669C785.032 348.356 594.147 253.816 350.348 232.51C106.549 211.203 -97.8416 271.198 -106.171 366.512C-114.501 461.825 76.384 556.365 320.183 577.671Z" stroke="#0058A9" stroke-width="2" stroke-miterlimit="10"/>
<path d="M957.451 649.54C1200.51 620.988 1391.06 542.656 1383.06 474.581C1375.07 406.507 1171.55 374.468 928.492 403.02C685.435 431.573 494.882 509.905 502.878 577.979C510.875 646.054 714.395 678.093 957.451 649.54Z" stroke="#0058A9" stroke-opacity="0.5" stroke-width="7" stroke-miterlimit="10"/>
<path d="M407.804 623.189C553.729 608.935 667.378 549.807 661.645 491.124C655.913 432.44 532.97 396.424 387.045 410.678C241.121 424.933 127.472 484.061 133.205 542.744C138.937 601.427 261.88 637.444 407.804 623.189Z" stroke="#FE9111" stroke-width="7" stroke-miterlimit="10"/>
<path d="M869.812 709.122C1116.51 646.239 1297.35 520.104 1273.71 427.391C1250.08 334.679 1030.93 310.497 784.233 373.381C537.532 436.264 356.7 562.399 380.332 655.111C403.964 747.824 623.112 772.005 869.812 709.122Z" stroke="#FE9111" stroke-opacity="0.6" stroke-width="7" stroke-miterlimit="10"/>
<path d="M1104.35 577.045C1124.36 483.484 934.873 363.649 681.119 309.388C427.366 255.127 205.44 286.987 185.433 380.549C165.426 474.111 354.915 593.945 608.669 648.206C862.422 702.467 1084.35 670.607 1104.35 577.045Z" stroke="#FF0000" stroke-opacity="0.7" stroke-width="4.12" stroke-miterlimit="10"/>
</g>
<path d="M1476.78 270.736C1460.57 176.441 1251.91 133.601 1010.72 175.051C769.525 216.5 587.137 326.543 603.341 420.837C619.546 515.132 828.208 557.971 1069.4 516.522C1310.59 475.073 1492.98 365.03 1476.78 270.736Z" stroke="#FF0000" stroke-opacity="0.7" stroke-miterlimit="10"/>
</g>
<defs>
<filter id="filter0_f_496_357" x="-110.434" y="93.8373" width="1500.24" height="656.776" filterUnits="userSpaceOnUse" color-interpolation-filters="sRGB">
<feFlood flood-opacity="0" result="BackgroundImageFix"/>
<feBlend mode="normal" in="SourceGraphic" in2="BackgroundImageFix" result="shape"/>
<feGaussianBlur stdDeviation="1.5" result="effect1_foregroundBlur_496_357"/>
</filter>
<clipPath id="clip0_496_357">
<rect width="1440" height="629" fill="white"/>
</clipPath>
</defs>
</svg>
